<?xml version="1.0" encoding="UTF-8" standalone="no"?>
 <svg xmlns="http://www.w3.org/2000/svg" version="1.0" height="85" width="90" >
 <path id="0" 
d="M 71.4139 24.6986
C 74.0321 26.4404 73.6547 26.6098 76.8482 29.3289
C 79.7544 30.2516 78.9845 27.437 81.6838 26.4321
C 84.8559 28.5352 83.3095 31.5752 81.4862 35.1684
C 76.5947 38.061 72.1149 33.968 68.5419 36.7635
C 65.3485 39.9888 64.9687 41.7978 64.0424 45.2697
C 64.8784 51.5612 73.5044 58.5683 72.8009 67.6775
C 72.4997 73.0112 67.5636 79.4786 62.7949 81.4083
C 47.5379 84.2765 31.0077 85.4995 16.8505 83.3716
C 9.86612 78.1032 5.67372 68.0579 1.24814 59.7073
C 2.15869 53.443 4.387 45.9793 8.79131 43.3472
C 13.4518 40.7006 11.8174 47.6825 16.9924 49.5251
C 20.0841 49.1391 21.1308 47.1084 25.7683 45.5611
C 30.5817 45.7269 34.2511 50.1928 37.8943 50.5264
C 40.9712 48.9243 43.8013 46.9009 44.0304 46.4303
C 39.7334 40.9767 29.6079 35.2223 30.4487 27.7926
C 29.1128 20.9532 31.6775 12.5522 37.6754 7.45133
C 42.9032 0.53967 53.4701 0.305574 61.5926 4.05774
C 68.2506 9.42437 68.4782 18.9931 71.4139 24.6986
"
fill="rgb(239,229,44)"
/>
</svg>