<?xml version="1.0" encoding="UTF-8" standalone="no"?>
 <svg xmlns="http://www.w3.org/2000/svg" version="1.0" height="84" width="90" >
 <path id="0" 
d="M 46.561 66.5767
C 49.0327 66.3291 53.0123 67.6594 55.9966 66.4073
C 58.8402 65.2769 56.7463 66.0922 57.4576 65.9534
C 54.7254 69.6264 50.9115 71.5908 52.3236 75.5132
C 53.6189 78.7874 55.9969 77.5392 59.5492 77.2633
C 61.9782 76.3141 59.9656 75.8129 60.6224 75.2371
C 64.7941 71.8214 63.9937 69.6244 66.3353 68.4299
C 69.6637 68.8277 72.303 68.1912 74.4192 68.4622
C 76.1848 68.6639 68.9272 71.5398 71.6212 74.7133
C 70.0508 77.9309 71.8657 80.0211 73.5179 79.8535
C 77.112 80.0543 77.8839 80.3248 80.2773 78.0479
C 82.9638 74.4796 78.8208 71.6547 79.4724 71.3731
C 84.3771 66.8686 83.4124 66.4583 82.7211 63.8314
C 81.8049 60.1121 80.6283 61.8172 78.5841 57.6473
C 79.323 53.7988 82.4119 49.2367 83.4716 43.5457
C 82.6413 38.8133 78.2066 36.762 76.6747 34.1068
C 77.1555 31.3053 80.2252 32.8423 77.899 29.7088
C 77.7796 27.1215 77.3767 28.0566 75.6055 25.0636
C 75.0577 22.5734 78.7662 21.9753 76.6475 21.4377
C 72.9531 20.3317 74.1252 23.4663 70.7952 25.6058
C 70.8245 29.6414 72.2751 28.083 70.6182 29.5016
C 66.1217 29.3825 61.7755 29.1294 57.4823 30.4611
C 56.8812 30.4465 58.3587 29.4858 57.4489 27.5419
C 56.5286 23.6861 55.7045 24.9704 52.4855 21.7047
C 51.9545 17.5427 50.5852 17.0898 49.6302 13.3037
C 49.5085 10.7556 55.4837 9.25964 54.3883 6.41641
C 53.1392 3.01187 50.3645 4.21034 47.0709 4.04014
C 43.837 4.32141 44.2351 4.62124 39.7107 6.54598
C 36.2669 7.15995 32.4989 5.46302 27.0571 6.47268
C 22.2614 9.26641 21.2584 13.9372 18.6152 17.4414
C 16.4816 18.5972 15.2888 15.3185 10.2034 14.7191
C 6.53008 17.4795 3.27124 18.9352 4.07963 22.9732
C 4.87728 26.1037 5.78548 25.7512 7.80297 29.3014
C 10.6 31.1009 12.5387 28.0836 14.4248 30.4169
C 14.975 32.9763 11.4331 36.7953 13.1466 40.1551
C 16.3642 46.7013 23.6609 46.5121 28.4647 48.518
C 29.8097 49.8713 28.1791 50.504 27.603 54.2051
C 28.5918 58.0013 30.3648 58.3228 31.6192 63.0366
C 31.9811 66.4766 32.5001 66.385 32.5034 67.4306
C 30.0097 70.8797 29.6554 70.5505 29.2932 73.6419
C 30.3325 75.9276 29.6713 73.0846 30.2993 77.5749
C 33.7199 78.233 33.2513 80.1467 36.0574 80.5533
C 40.5625 81.7173 39.0898 81.9881 41.3116 78.3333
C 43.5419 75.1137 42.7776 77.6505 45.6573 73.2863
C 46.5815 70.0874 45.2059 67.8289 46.561 66.5767
"
fill="rgb(240,215,244)"
/>
</svg>