<?xml version="1.0" encoding="UTF-8" standalone="no"?>
 <svg xmlns="http://www.w3.org/2000/svg" version="1.0" height="66" width="70" >
 <path id="0" 
d="M 30.1975 26.9612
C 25.6249 38.3989 29.3608 51.9947 23.4204 62.3388
C 21.4631 65.7962 18.7056 58.1366 16.2393 55.8288
C 15.2244 54.2557 15.849 61.6018 13.6294 59.6679
C 9.99707 52.9266 15.5534 45.3435 12.8103 39.4001
C 11.016 39.259 5.06281 38.5816 3.73559 34.2054
C 0.972777 27.9124 5.31772 28.071 7.1484 23.7318
C 6.65621 21.0518 3.02055 18.7152 3.53846 14.5516
C 1.99112 8.24717 5.24055 1.19832 10.3976 1.47458
C 19.1116 0.320284 24.6238 8.7309 29.5204 10.9932
C 33.7207 12.511 34.5825 11.3324 37.2339 10.8932
C 46.0103 8.12995 51.0723 -0.973183 60.2242 -0.441961
C 67.3658 -0.49971 68.2435 5.76926 66.4057 11.1071
C 65.9864 15.3149 64.9296 18.3637 63.6236 24.1995
C 63.3335 27.8723 65.9126 32.2116 61.4239 38.1796
C 58.3338 40.5442 54.5935 35.4036 53.5599 37.7296
C 52.2455 40.619 57.6094 46.356 56.3988 51.6563
C 54.6349 55.0378 53.4693 52.1309 52.8264 52.7057
C 50.6147 54.5319 46.5606 62.7446 44.4629 60.3951
C 38.1234 50.3179 39.5929 37.0996 35.3137 27.5245
C 31.3413 28.2129 30.3919 25.8917 30.1975 26.9612
"
fill="rgb(3,250,13)"
/>
</svg>