<?xml version="1.0" encoding="UTF-8" standalone="no"?>
 <svg xmlns="http://www.w3.org/2000/svg" version="1.0" height="158" width="200" >
 <path id="0" 
d="M 57.4913 86.2535
C 48.6118 86.6386 40.3227 79.8772 31.9323 78.515
C 23.3102 77.5159 3.16165 88.4908 2.89566 80.5173
C 5.01548 58.9379 21.7621 41.8305 36.6576 30.0742
C 48.7987 15.7147 67.592 11.6736 85.9039 4.98346
C 85.6334 3.65237 86.4659 4.67841 90.4799 1.19833
C 94.0588 0.958557 91.4935 1.20441 92.7149 0.77783
C 95.9918 3.00567 92.5475 5.93629 94.6694 5.80133
C 111.401 8.75755 128.203 6.09968 140.795 12.4503
C 160.945 20.7288 183.029 28.8048 194.5 47.5639
C 199.148 57.3243 176.494 54.1354 170.907 56.5938
C 159.605 60.7921 152.548 70.0133 143.693 74.8122
C 130.705 75.243 117.652 69.7892 107.356 67.633
C 105.537 68.5598 105.976 70.8294 104.214 74.5193
C 105.481 99.6531 112.139 126.007 112.682 150.08
C 113.288 155.512 107.524 156.772 105.946 152.431
C 97.9352 128.373 98.473 101.683 95.364 78.2024
C 91.9956 73.5842 92.1967 69.8369 90.2166 69.9794
C 79.8634 73.0157 69.1745 82.9499 57.4913 86.2535
"
fill="rgb(157,183,21)"
/>
</svg>